
                <svg id="trend-chart" width="660" height="400" title="Stack Overflow Trends Chart" version="1.1" xmlns="http://www.w3.org/2000/svg"><g></g><g class="chart-area" transform="translate(100, 20)"><g transform="translate(0,300)" fill="none" font-size="10" font-family="sans-serif" text-anchor="middle"><path class="domain" stroke="#000" d="M0.5,6V0.5H410.5V6"></path><g class="tick" opacity="1" transform="translate(19.27121723996724,0)"><line stroke="#000" y2="6" x1="0.5" x2="0.5"></line><text fill="#000" y="9" x="0.5" dy="0.71em" style="font-size: 12px;">2009</text></g><g class="tick" opacity="1" transform="translate(65.23251945126945,0)"><line stroke="#000" y2="6" x1="0.5" x2="0.5"></line><text fill="#000" y="9" x="0.5" dy="0.71em" style="font-size: 12px;">2010</text></g><g class="tick" opacity="1" transform="translate(111.19382166257166,0)"><line stroke="#000" y2="6" x1="0.5" x2="0.5"></line><text fill="#000" y="9" x="0.5" dy="0.71em" style="font-size: 12px;">2011</text></g><g class="tick" opacity="1" transform="translate(157.15512387387386,0)"><line stroke="#000" y2="6" x1="0.5" x2="0.5"></line><text fill="#000" y="9" x="0.5" dy="0.71em" style="font-size: 12px;">2012</text></g><g class="tick" opacity="1" transform="translate(203.24234746109747,0)"><line stroke="#000" y2="6" x1="0.5" x2="0.5"></line><text fill="#000" y="9" x="0.5" dy="0.71em" style="font-size: 12px;">2013</text></g><g class="tick" opacity="1" transform="translate(249.20364967239968,0)"><line stroke="#000" y2="6" x1="0.5" x2="0.5"></line><text fill="#000" y="9" x="0.5" dy="0.71em" style="font-size: 12px;">2014</text></g><g class="tick" opacity="1" transform="translate(295.16495188370186,0)"><line stroke="#000" y2="6" x1="0.5" x2="0.5"></line><text fill="#000" y="9" x="0.5" dy="0.71em" style="font-size: 12px;">2015</text></g><g class="tick" opacity="1" transform="translate(341.1262540950041,0)"><line stroke="#000" y2="6" x1="0.5" x2="0.5"></line><text fill="#000" y="9" x="0.5" dy="0.71em" style="font-size: 12px;">2016</text></g><g class="tick" opacity="1" transform="translate(387.2134776822277,0)"><line stroke="#000" y2="6" x1="0.5" x2="0.5"></line><text fill="#000" y="9" x="0.5" dy="0.71em" style="font-size: 12px;">2017</text></g></g><g class="grid-lines" transform="translate(0,300)" fill="none" font-size="10" font-family="sans-serif" text-anchor="middle"><path class="domain" stroke="#000" d="M0.5,-300V0.5H410.5V-300"></path><g class="tick" opacity="1" transform="translate(19.27121723996724,0)"><line stroke="#000" y2="-300" x1="0.5" x2="0.5" style="stroke: #ccc; fill: none;"></line></g><g class="tick" opacity="1" transform="translate(65.23251945126945,0)"><line stroke="#000" y2="-300" x1="0.5" x2="0.5" style="stroke: #ccc; fill: none;"></line></g><g class="tick" opacity="1" transform="translate(111.19382166257166,0)"><line stroke="#000" y2="-300" x1="0.5" x2="0.5" style="stroke: #ccc; fill: none;"></line></g><g class="tick" opacity="1" transform="translate(157.15512387387386,0)"><line stroke="#000" y2="-300" x1="0.5" x2="0.5" style="stroke: #ccc; fill: none;"></line></g><g class="tick" opacity="1" transform="translate(203.24234746109747,0)"><line stroke="#000" y2="-300" x1="0.5" x2="0.5" style="stroke: #ccc; fill: none;"></line></g><g class="tick" opacity="1" transform="translate(249.20364967239968,0)"><line stroke="#000" y2="-300" x1="0.5" x2="0.5" style="stroke: #ccc; fill: none;"></line></g><g class="tick" opacity="1" transform="translate(295.16495188370186,0)"><line stroke="#000" y2="-300" x1="0.5" x2="0.5" style="stroke: #ccc; fill: none;"></line></g><g class="tick" opacity="1" transform="translate(341.1262540950041,0)"><line stroke="#000" y2="-300" x1="0.5" x2="0.5" style="stroke: #ccc; fill: none;"></line></g><g class="tick" opacity="1" transform="translate(387.2134776822277,0)"><line stroke="#000" y2="-300" x1="0.5" x2="0.5" style="stroke: #ccc; fill: none;"></line></g></g><text x="205" y="360" class="axis-label x-axis-label" style="text-anchor: middle; font-weight: bold;">Year</text><g fill="none" font-size="10" font-family="sans-serif" text-anchor="end"><path class="domain" stroke="#000" d="M-6,300.5H0.5V0.5H-6"></path><g class="tick" opacity="1" transform="translate(0,300)"><line stroke="#000" x2="-6" y1="0.5" y2="0.5"></line><text fill="#000" x="-9" y="0.5" dy="0.32em" style="font-size: 12px;">0.00%</text></g><g class="tick" opacity="1" transform="translate(0,266.6666666666667)"><line stroke="#000" x2="-6" y1="0.5" y2="0.5"></line><text fill="#000" x="-9" y="0.5" dy="0.32em" style="font-size: 12px;">1.00%</text></g><g class="tick" opacity="1" transform="translate(0,233.33333333333331)"><line stroke="#000" x2="-6" y1="0.5" y2="0.5"></line><text fill="#000" x="-9" y="0.5" dy="0.32em" style="font-size: 12px;">2.00%</text></g><g class="tick" opacity="1" transform="translate(0,200)"><line stroke="#000" x2="-6" y1="0.5" y2="0.5"></line><text fill="#000" x="-9" y="0.5" dy="0.32em" style="font-size: 12px;">3.00%</text></g><g class="tick" opacity="1" transform="translate(0,166.66666666666666)"><line stroke="#000" x2="-6" y1="0.5" y2="0.5"></line><text fill="#000" x="-9" y="0.5" dy="0.32em" style="font-size: 12px;">4.00%</text></g><g class="tick" opacity="1" transform="translate(0,133.33333333333331)"><line stroke="#000" x2="-6" y1="0.5" y2="0.5"></line><text fill="#000" x="-9" y="0.5" dy="0.32em" style="font-size: 12px;">5.00%</text></g><g class="tick" opacity="1" transform="translate(0,100)"><line stroke="#000" x2="-6" y1="0.5" y2="0.5"></line><text fill="#000" x="-9" y="0.5" dy="0.32em" style="font-size: 12px;">6.00%</text></g><g class="tick" opacity="1" transform="translate(0,66.66666666666663)"><line stroke="#000" x2="-6" y1="0.5" y2="0.5"></line><text fill="#000" x="-9" y="0.5" dy="0.32em" style="font-size: 12px;">7.00%</text></g><g class="tick" opacity="1" transform="translate(0,33.333333333333314)"><line stroke="#000" x2="-6" y1="0.5" y2="0.5"></line><text fill="#000" x="-9" y="0.5" dy="0.32em" style="font-size: 12px;">8.00%</text></g><g class="tick" opacity="1" transform="translate(0,0)"><line stroke="#000" x2="-6" y1="0.5" y2="0.5"></line><text fill="#000" x="-9" y="0.5" dy="0.32em" style="font-size: 12px;">9.00%</text></g></g><g class="grid-lines" fill="none" font-size="10" font-family="sans-serif" text-anchor="end"><path class="domain" stroke="#000" d="M410,300.5H0.5V0.5H410"></path><g class="tick" opacity="1" transform="translate(0,300)"><line stroke="#000" x2="410" y1="0.5" y2="0.5" style="stroke: #ccc; fill: none;"></line></g><g class="tick" opacity="1" transform="translate(0,266.6666666666667)"><line stroke="#000" x2="410" y1="0.5" y2="0.5" style="stroke: #ccc; fill: none;"></line></g><g class="tick" opacity="1" transform="translate(0,233.33333333333331)"><line stroke="#000" x2="410" y1="0.5" y2="0.5" style="stroke: #ccc; fill: none;"></line></g><g class="tick" opacity="1" transform="translate(0,200)"><line stroke="#000" x2="410" y1="0.5" y2="0.5" style="stroke: #ccc; fill: none;"></line></g><g class="tick" opacity="1" transform="translate(0,166.66666666666666)"><line stroke="#000" x2="410" y1="0.5" y2="0.5" style="stroke: #ccc; fill: none;"></line></g><g class="tick" opacity="1" transform="translate(0,133.33333333333331)"><line stroke="#000" x2="410" y1="0.5" y2="0.5" style="stroke: #ccc; fill: none;"></line></g><g class="tick" opacity="1" transform="translate(0,100)"><line stroke="#000" x2="410" y1="0.5" y2="0.5" style="stroke: #ccc; fill: none;"></line></g><g class="tick" opacity="1" transform="translate(0,66.66666666666663)"><line stroke="#000" x2="410" y1="0.5" y2="0.5" style="stroke: #ccc; fill: none;"></line></g><g class="tick" opacity="1" transform="translate(0,33.333333333333314)"><line stroke="#000" x2="410" y1="0.5" y2="0.5" style="stroke: #ccc; fill: none;"></line></g><g class="tick" opacity="1" transform="translate(0,0)"><line stroke="#000" x2="410" y1="0.5" y2="0.5" style="stroke: #ccc; fill: none;"></line></g></g><g class="lines"><path class="line" d="M3.9035626535626538,174.673L7.681203931203931,185.204L11.590013308763309,183.19466666666668L15.367654586404585,179.8313333333333L19.27121723996724,169.07866666666666L23.174779893529895,181.92533333333333L26.70057841932842,176.775L30.598894348894348,181.8143333333333L34.37653562653563,172.45666666666665L38.28009828009828,178.62133333333333L42.05773955773956,181.35433333333333L45.96130221130221,184.97433333333333L49.86486486486487,183.03933333333333L53.64250614250615,170.51500000000001L57.551315520065515,165.83266666666668L61.328956797706795,161.202L65.23251945126945,156.46299999999997L69.1360821048321,162.34533333333331L72.66188063063062,168.83700000000002L76.56019656019656,180.17933333333332L80.33783783783784,171.83166666666668L84.2414004914005,168.86133333333333L88.01904176904176,158.475L91.92260442260442,170.51166666666666L95.82616707616708,178.40833333333336L99.60380835380836,161.57066666666665L103.51261773136774,176.114L107.29025900900902,182.01033333333334L111.19382166257166,180.07399999999998L115.09738431613431,180.079L118.62318284193283,177.44866666666667L122.52149877149877,185.01166666666666L126.29914004914005,184.3263333333333L130.20270270270268,184.7663333333333L133.98034398034397,179.89733333333334L137.88390663390663,182.33466666666666L141.7874692874693,186.96633333333335L145.5651105651106,182.26433333333333L149.47391994266994,183.0263333333333L153.25156122031123,185.09466666666668L157.15512387387386,180.78066666666666L161.05868652743652,181.04166666666666L164.71040642915642,176.47299999999998L168.60872235872236,174.66833333333332L172.38636363636365,175.45233333333334L176.28992628992629,167.72033333333334L180.06756756756758,167.56566666666666L183.9711302211302,163.93333333333334L187.87469287469287,169.11633333333333L191.65233415233416,165.432L195.56114352989354,158.01466666666667L199.3387848075348,160.31466666666668L203.24234746109747,163.269L207.14591011466013,156.43L210.67170864045866,156.27566666666667L214.5700245700246,148.6833333333333L218.34766584766584,145.9453333333333L222.25122850122852,142.61333333333334L226.02886977886976,140.32399999999998L229.93243243243245,146.90066666666664L233.8359950859951,141.977L237.61363636363637,130.904L241.52244574119575,122.94266666666664L245.30008701883702,131.83633333333336L249.20364967239968,128.94133333333332L253.10721232596234,127.11433333333335L256.63301085176084,119.63866666666667L260.5313267813268,118.07633333333334L264.3089680589681,127.52100000000002L268.21253071253074,120.36066666666667L271.99017199017203,116.09766666666667L275.89373464373466,117.12866666666667L279.7972972972973,126.17899999999997L283.5749385749386,117.588L287.48374795249794,110.97033333333334L291.26138923013923,108.59866666666665L295.16495188370186,107.98933333333332L299.06851453726455,100.68433333333334L302.59431306306305,98.84300000000002L306.492628992629,101.44566666666668L310.27027027027026,101.14899999999997L314.17383292383295,93.243L317.95147420147424,92.31000000000003L321.8550368550369,96.1823333333333L325.7585995085995,96.98533333333336L329.5362407862408,79.326L333.44505016380015,72.702L337.22269144144144,78.24166666666665L341.1262540950041,75.488L345.02981674856676,68.67133333333331L348.68153665028666,70.32499999999999L352.57985257985257,71.31633333333332L356.35749385749386,72.49433333333334L360.2610565110565,69.565L364.0386977886978,61.09166666666664L367.9422604422604,70.18800000000002L371.8458230958231,73.29933333333332L375.62346437346434,58.091333333333296L379.53227375102375,44.52733333333333L383.30991502866505,46.83100000000002L387.2134776822277,45.56833333333333L391.1170403357903,32.018666666666604L394.64283886158887,31.88633333333331L398.5411547911548,24.24000000000001L402.3187960687961,27.342333333333386L406.2223587223587,16.926333333333332L410,5.89766666666668" data-legend="python" style="stroke: rgb(31, 119, 180); fill: none;"></path><path class="line" d="M3.9035626535626538,298.623L7.681203931203931,300L11.590013308763309,299.743L15.367654586404585,299.7296666666667L19.27121723996724,298.348L23.174779893529895,298.3213333333333L26.70057841932842,299.35833333333335L30.598894348894348,298.156L34.37653562653563,299.74533333333335L38.28009828009828,299.4193333333333L42.05773955773956,294.833L45.96130221130221,295.27433333333335L49.86486486486487,286.14033333333333L53.64250614250615,293.3806666666667L57.551315520065515,291.96733333333333L61.328956797706795,293.0296666666667L65.23251945126945,293.0323333333333L69.1360821048321,291.034L72.66188063063062,291.16766666666666L76.56019656019656,289.4723333333333L80.33783783783784,291.198L84.2414004914005,289.49966666666666L88.01904176904176,287.2916666666667L91.92260442260442,285.383L95.82616707616708,287.331L99.60380835380836,288.9236666666667L103.51261773136774,288.49766666666665L107.29025900900902,289.43666666666667L111.19382166257166,289.6913333333333L115.09738431613431,287.277L118.62318284193283,286.268L122.52149877149877,283.661L126.29914004914005,286.03833333333336L130.20270270270268,285.31966666666665L133.98034398034397,285.24333333333334L137.88390663390663,282.0833333333333L141.7874692874693,280.36566666666664L145.5651105651106,279.8933333333333L149.47391994266994,281.725L153.25156122031123,280.58133333333336L157.15512387387386,280.557L161.05868652743652,278.55566666666664L164.71040642915642,278.26433333333335L168.60872235872236,278.467L172.38636363636365,278.60833333333335L176.28992628992629,275.6793333333333L180.06756756756758,274.15999999999997L183.9711302211302,274.68966666666665L187.87469287469287,273.70966666666664L191.65233415233416,272.17566666666664L195.56114352989354,270.22L199.3387848075348,270.54466666666667L203.24234746109747,268.67033333333336L207.14591011466013,264.48633333333333L210.67170864045866,265.3073333333333L214.5700245700246,264.98199999999997L218.34766584766584,264.90166666666664L222.25122850122852,263.32933333333335L226.02886977886976,263.45799999999997L229.93243243243245,262.981L233.8359950859951,266.014L237.61363636363637,262.59233333333333L241.52244574119575,259.2986666666667L245.30008701883702,262.24466666666666L249.20364967239968,259.1256666666667L253.10721232596234,254.428L256.63301085176084,255.529L260.5313267813268,253.887L264.3089680589681,251.94066666666666L268.21253071253074,251.78033333333332L271.99017199017203,251.21433333333334L275.89373464373466,250.39033333333333L279.7972972972973,253.13266666666667L283.5749385749386,247.29866666666666L287.48374795249794,246.678L291.26138923013923,250.258L295.16495188370186,246.567L299.06851453726455,242.13366666666667L302.59431306306305,238.22733333333332L306.492628992629,242.57266666666666L310.27027027027026,239.45733333333334L314.17383292383295,239.97899999999998L317.95147420147424,233.09233333333333L321.8550368550369,236.71666666666667L325.7585995085995,238.481L329.5362407862408,235.03333333333333L333.44505016380015,234.83033333333333L337.22269144144144,239.44166666666666L341.1262540950041,235.85133333333334L345.02981674856676,237.18233333333333L348.68153665028666,234.08100000000002L352.57985257985257,230.90033333333332L356.35749385749386,234.196L360.2610565110565,231.27533333333332L364.0386977886978,230.53166666666667L367.9422604422604,233.0353333333333L371.8458230958231,239.481L375.62346437346434,232.63133333333332L379.53227375102375,235.665L383.30991502866505,238.21966666666665L387.2134776822277,237.09666666666666L391.1170403357903,233.27433333333335L394.64283886158887,226.8383333333333L398.5411547911548,224.48499999999999L402.3187960687961,226.52433333333335L406.2223587223587,220.667L410,220.01733333333334" data-legend="r" style="stroke: rgb(255, 127, 14); fill: none;"></path><path class="line" d="M3.9035626535626538,297.2456666666667L7.681203931203931,295.08666666666664L11.590013308763309,297.17L15.367654586404585,296.4816666666667L19.27121723996724,296.07666666666665L23.174779893529895,294.96366666666665L26.70057841932842,296.14933333333335L30.598894348894348,295.082L34.37653562653563,294.64866666666666L38.28009828009828,294.88933333333335L42.05773955773956,296.0486666666667L45.96130221130221,296.58166666666665L49.86486486486487,294.915L53.64250614250615,293.56233333333336L57.551315520065515,289.91633333333334L61.328956797706795,291.2L65.23251945126945,293.179L69.1360821048321,291.84233333333333L72.66188063063062,292.24L76.56019656019656,287.6956666666667L80.33783783783784,286.82866666666666L84.2414004914005,291.3283333333333L88.01904176904176,291.78L91.92260442260442,292.71733333333333L95.82616707616708,291.035L99.60380835380836,291.49966666666666L103.51261773136774,292.552L107.29025900900902,291.559L111.19382166257166,292.73066666666665L115.09738431613431,288.423L118.62318284193283,286.0083333333333L122.52149877149877,286.806L126.29914004914005,289.98566666666665L130.20270270270268,289.6743333333333L133.98034398034397,290.704L137.88390663390663,292.12533333333334L141.7874692874693,291.448L145.5651105651106,287.026L149.47391994266994,286.97633333333334L153.25156122031123,287.61133333333333L157.15512387387386,286.9723333333333L161.05868652743652,285.2916666666667L164.71040642915642,285.8826666666667L168.60872235872236,284.22933333333333L172.38636363636365,286.8693333333333L176.28992628992629,286.8793333333333L180.06756756756758,287.0686666666667L183.9711302211302,286.144L187.87469287469287,286.29833333333335L191.65233415233416,283.5276666666667L195.56114352989354,281.15566666666666L199.3387848075348,283.7056666666667L203.24234746109747,284.90166666666664L207.14591011466013,282.664L210.67170864045866,281.136L214.5700245700246,279.798L218.34766584766584,279.9103333333333L222.25122850122852,281.3256666666667L226.02886977886976,281.6093333333333L229.93243243243245,282.43966666666665L233.8359950859951,282.258L237.61363636363637,280.1813333333333L241.52244574119575,277.5303333333333L245.30008701883702,278.992L249.20364967239968,280.59866666666665L253.10721232596234,278.36766666666665L256.63301085176084,277.4746666666667L260.5313267813268,276.0563333333333L264.3089680589681,276.64366666666666L268.21253071253074,279.24033333333335L271.99017199017203,279.40933333333334L275.89373464373466,281.466L279.7972972972973,278.84133333333335L283.5749385749386,276.615L287.48374795249794,275.644L291.26138923013923,278.745L295.16495188370186,279.965L299.06851453726455,276.76433333333335L302.59431306306305,276.0366666666667L306.492628992629,273.52166666666665L310.27027027027026,275.2733333333333L314.17383292383295,278.621L317.95147420147424,281.03866666666664L321.8550368550369,281.4433333333333L325.7585995085995,282.625L329.5362407862408,281.31333333333333L333.44505016380015,279.27166666666665L337.22269144144144,283.211L341.1262540950041,283.04966666666667L345.02981674856676,281.269L348.68153665028666,279.72866666666664L352.57985257985257,281.29766666666666L356.35749385749386,280.161L360.2610565110565,282.1793333333333L364.0386977886978,283.3136666666667L367.9422604422604,283.327L371.8458230958231,283.78933333333333L375.62346437346434,282.9463333333333L379.53227375102375,284.3713333333333L383.30991502866505,284.65233333333333L387.2134776822277,285.162L391.1170403357903,284.299L394.64283886158887,282.58733333333333L398.5411547911548,281.72266666666667L402.3187960687961,282.29266666666666L406.2223587223587,285.71633333333335L410,286.629" data-legend="matlab" style="stroke: rgb(44, 160, 44); fill: none;"></path></g></g><g transform="translate(20, 150)"><text transform="rotate(-90)" x="-50" y="0" dy="1em" class="axis-label y-axis-label" style="text-anchor: middle; font-weight: bold;">% of Stack Overflow questions that month</text></g><g class="legend" transform="translate(530, 30)" style="font-size: 12px;"><text class="legend-title" style="font-weight: bold;">Tag</text><g class="legend-items" transform="translate(0,20)"><text y="0em" x="1em">python</text><text y="1em" x="1em">r</text><text y="2em" x="1em">matlab</text><circle cy="-0.25em" cx="0" r="0.4em" style="fill: rgb(31, 119, 180);"></circle><circle cy="0.75em" cx="0" r="0.4em" style="fill: rgb(255, 127, 14);"></circle><circle cy="1.75em" cx="0" r="0.4em" style="fill: rgb(44, 160, 44);"></circle></g><rect class="legend-box"></rect></g></svg>
            